<mxfile host="app.diagrams.net" modified="2023-06-16T05:48:55.569Z" agent="Mozilla/5.0 (Windows NT 10.0; Win64; x64) AppleWebKit/537.36 (KHTML, like Gecko) Chrome/114.0.0.0 Safari/537.36" version="21.4.0" etag="8VWi5Jz5xuaMA7WKyxAk" type="github">
  <diagram name="Страница 1" id="4xM4dpQN73c-2J1Xovlg">
    <mxGraphModel>
      <root>
        <mxCell id="0" />
        <mxCell id="1" parent="0" />
      </root>
    </mxGraphModel>
  </diagram>
</mxfile>
